<?xml version="1.0" encoding="UTF-8"?>
<!-- Created with Inkscape (http://www.inkscape.org/) -->
<svg width="210.13mm" height="97.512mm" version="1.1" viewBox="0 0 210.13 97.512" xmlns="http://www.w3.org/2000/svg">
 <g transform="translate(-.26988 -69.499)">
  <g fill-rule="evenodd">
   <path d="m0.26988 69.499h210.13v97.512h-210.13z" fill="#39a2db" stroke-width=".26458"/>
   <path d="m29.106 69.499v1.7758h-7.6683v1.7658h7.6683v2.1958h-7.6683v2.0002h7.6683v2.1958h-7.6683v2.1037h5.7851v-7e-3h2.3171v5.3749h-2.3171v-3.1719h-5.7851v3.1802h-3.6288l0.02373 3.8044 3.3551-0.01893 0.01352 2.1955-3.3545 0.01893v2.71e-4l-2.3174 0.01298-0.03784-6.0131h-1.8633l0.03784 6.0234-2.3174 0.01324-0.03811-6.0366h-2.1108l0.03811 6.0488-2.3174 0.01273-0.03811-6.0615h-2.2201l0.026778 4.29h0.00716l0.014111 2.1952-4.4405 0.02513v-2.1958l2.1022-0.011886-0.027366-4.3027h-2.0749v-17.413z" fill="#b2e4ff" stroke-width=".042216"/>
   <path d="m199.7 124.57-0.0566-8.063-3.8666 0.0199v0.0105l-6.6957 0.0337v-3.156l9.8162-0.0501-0.0233-3.2934-9.7928 0.0495v-3.0012l9.7716-0.0495-0.0226-3.2934-9.749 0.0495v-2.6493l5.864-0.0295 3.8666-0.0199-0.0233-3.2934-0.0332-4.769-3.8666 0.0199 0.0332 4.7684-5.8406 0.0295v-4.6545h-7.8698v-7.6063h5.598v-3.294h-9.4646v10.9h-3.1092v-10.9h-3.8666v10.9h-3.5222v-10.9h-3.8666v10.9h-3.7047v-8.2233h0.0123v-3.294h-9.4647v3.294h5.5853v8.2233h-5.6002v5.1582l-6.6992-0.0337 0.0332-4.769-3.8659-0.0193-0.0332 4.7684h-7e-4l-0.0225 3.294 10.588 0.0536v2.6487l-10.607-0.0536-0.0234 3.294 10.63 0.0542v3.0006l-10.651-0.0543-0.0225 3.294 10.674 0.0542v3.156l-7.5543-0.0381v-0.0105l-3.8659-0.0199-0.0565 8.0624 3.8666 0.0199 0.0332-4.7582 7.5769 0.0386v6.109h5.8349v9.5291h-5.8201v3.294h9.4646v-0.2633h0.22209v-12.56h3.7047v12.707h3.8667v-12.707h3.5229v12.707h3.8659v-12.707h3.1099v12.707h0.48862v0.11566h9.4647v-3.294h-6.0875v-9.529h7.635v-6.6127l6.719-0.0337 0.0332 4.7576z" fill="#b2e4ff" stroke-width=".066791"/>
  </g>
 </g>
</svg>

